<svg version="1.1" id="Layer_1" xmlns="http://www.w3.org/2000/svg" xmlns:xlink="http://www.w3.org/1999/xlink" x="0px" y="0px"
	 width="100%" viewBox="0 0 1024 672" enable-background="new 0 0 1024 672" xml:space="preserve">
<path fill="#FFFFFF" opacity="1.000000" stroke="none" 
	d="
M500.379120,410.852325 
	C501.431488,417.167267 502.417297,423.060028 503.441864,429.184265 
	C503.835785,428.628754 504.250519,428.280487 504.361847,427.853180 
	C511.204498,401.586761 528.636719,383.545593 550.408875,369.043884 
	C575.526917,352.313507 602.178284,338.135956 628.201599,322.914673 
	C638.409424,316.944000 648.738281,311.179810 659.028137,305.350220 
	C660.422729,304.560120 661.668213,303.197815 663.599609,303.828369 
	C664.751526,305.471771 664.281006,307.358673 664.282532,309.133301 
	C664.308594,339.626862 664.215454,370.120911 664.380127,400.613586 
	C664.403259,404.890594 663.015076,407.450806 659.198303,409.201965 
	C654.891968,411.177734 651.184631,414.389832 645.635498,416.137787 
	C645.635498,388.976257 645.635498,362.466034 645.635498,334.835632 
	C638.248413,339.069641 631.926331,342.664734 625.631287,346.306458 
	C604.871216,358.316254 583.764465,369.764252 563.674194,382.876648 
	C547.604004,393.365173 533.264038,405.752625 525.636292,424.124084 
	C520.828247,435.704346 518.915649,448.131622 515.454529,460.109619 
	C512.776733,469.376648 510.615997,478.792175 508.119629,488.113342 
	C507.663940,489.814819 507.648987,491.778717 505.478516,493.649017 
	C500.315308,490.591858 494.861694,487.524445 489.592560,484.167480 
	C487.315369,482.716736 487.963806,479.954834 487.825867,477.692596 
	C486.802887,460.917511 485.288300,444.182281 483.961700,427.431152 
	C481.633392,398.031006 466.879822,376.227966 443.757843,359.182556 
	C424.838959,345.235596 405.009613,332.635925 385.490662,319.576202 
	C382.184418,317.364014 378.828766,315.225769 374.364319,312.315735 
	C374.364319,347.584015 374.364319,381.824738 374.364319,417.529572 
	C367.583618,413.359192 362.100067,410.027649 356.667389,406.615173 
	C355.375793,405.803833 355.496643,404.337067 355.492126,402.989258 
	C355.358154,362.837616 355.215698,322.685944 355.087402,282.534271 
	C355.083221,281.224884 354.921448,279.846497 356.039154,278.666962 
	C357.892792,278.011230 359.047455,279.515228 360.337830,280.379242 
	C390.373779,300.491333 421.024200,319.691223 450.400085,340.782257 
	C468.761932,353.965515 484.630920,369.405945 494.108368,390.450073 
	C496.996490,396.862976 498.853851,403.581024 500.379120,410.852325 
z"/>
<path fill="#FFFFFF" opacity="1.000000" stroke="none" 
	d="
M474.562256,316.411987 
	C486.573242,326.755737 496.730530,337.980438 501.856873,353.070099 
	C505.006989,362.342682 504.340546,371.775452 503.977020,381.241241 
	C503.962952,381.607483 503.431183,381.953796 502.927856,382.569946 
	C500.795013,380.300018 500.487579,377.406372 499.456177,374.913818 
	C492.084839,357.100128 479.155823,343.767761 464.436157,332.069885 
	C444.204376,315.991455 422.192139,302.438934 400.699585,288.157898 
	C399.728973,287.513000 398.656555,286.995453 397.771851,286.251709 
	C394.349091,283.374237 388.209869,282.393066 387.339142,278.276764 
	C385.972198,271.814728 386.976257,264.851135 386.976257,256.476929 
	C416.663940,276.986603 446.606598,294.895844 474.562256,316.411987 
z"/>
<path fill="#FFFFFF" opacity="1.000000" stroke="none" 
	d="
M512.830872,378.009583 
	C513.871155,360.737579 522.452759,348.165955 535.316223,338.106384 
	C551.785034,325.227448 570.482483,315.927582 588.266479,305.150269 
	C595.292236,300.892578 602.324402,299.057037 610.409973,299.576447 
	C617.298096,300.018921 624.237305,299.667847 631.521606,299.667847 
	C630.948364,302.935059 628.653259,303.264069 627.100708,304.175629 
	C603.131104,318.248932 578.934326,331.946075 555.188904,346.386017 
	C541.825928,354.512268 529.138977,363.782990 519.558594,376.529724 
	C517.767517,378.912781 516.215027,381.474457 514.509705,383.923981 
	C514.383301,384.105530 513.910706,384.046021 513.474609,384.119598 
	C512.118164,382.373047 513.031494,380.331940 512.830872,378.009583 
z"/>
<path fill="#FFFFFF" opacity="1.000000" stroke="none" 
	d="
M602.806885,223.014526 
	C603.074707,208.038437 600.720032,209.984894 615.553467,209.810791 
	C621.878784,209.736557 628.207642,209.886124 634.531128,209.754929 
	C637.946716,209.684067 639.323059,211.085938 639.280701,214.493149 
	C639.168945,223.481705 639.153137,232.473434 639.265869,241.461807 
	C639.308594,244.868546 637.968506,246.268829 634.551514,246.227524 
	C625.562927,246.118866 616.571289,246.108383 607.582825,246.216766 
	C604.181824,246.257767 602.744141,244.903824 602.805603,241.491104 
	C602.913513,235.499939 602.818481,229.505112 602.806885,223.014526 
z"/>
<path fill="#FFFFFF" opacity="1.000000" stroke="none" 
	d="
M592.310913,265.034027 
	C592.305664,272.189026 592.126038,278.856323 592.359131,285.509155 
	C592.492859,289.324799 591.182800,291.034393 587.296997,290.996765 
	C578.305359,290.909576 569.311890,290.936005 560.319824,291.005188 
	C556.985840,291.030823 555.558472,289.700562 555.617676,286.230591 
	C555.770935,277.240509 555.772217,268.244476 555.623657,259.254303 
	C555.565308,255.725571 557.038391,254.599854 560.392029,254.652374 
	C568.883057,254.785355 577.388672,254.960052 585.866333,254.598511 
	C590.867126,254.385208 593.077942,255.933243 592.333069,261.046631 
	C592.166748,262.188110 592.309204,263.374542 592.310913,265.034027 
z"/>
<path fill="#FFFFFF" opacity="1.000000" stroke="none" 
	d="
M635.842834,268.993225 
	C635.741333,254.727509 635.741333,254.727509 649.373901,254.715637 
	C664.282349,254.702652 664.282349,254.702652 664.279968,269.644257 
	C664.277832,283.142853 664.277832,283.142822 650.817749,283.081757 
	C650.318787,283.079468 649.819702,283.081787 649.320801,283.076599 
	C633.419128,282.911316 636.130615,284.612915 635.842834,268.993225 
z"/>
<path fill="#FFFFFF" opacity="1.000000" stroke="none" 
	d="
M658.147339,187.645782 
	C661.451843,187.651352 664.272400,187.655716 667.093018,187.661606 
	C674.087341,187.676239 674.087341,187.676529 674.159180,194.911438 
	C674.292847,208.371735 674.292786,208.371735 660.859741,208.369293 
	C652.885864,208.367844 652.883484,208.367844 652.858704,200.549194 
	C652.850281,197.894516 652.986572,195.231964 652.825623,192.587051 
	C652.609741,189.039291 653.896362,187.185410 658.147339,187.645782 
z"/>
</svg>
