<svg xmlns="http://www.w3.org/2000/svg" version="1.1" xmlns:xlink="http://www.w3.org/1999/xlink" width="1000" height="1000"><svg xmlns="http://www.w3.org/2000/svg" version="1.1" xmlns:xlink="http://www.w3.org/1999/xlink" width="1000" height="1000"><svg xmlns="http://www.w3.org/2000/svg" xmlns:xlink="http://www.w3.org/1999/xlink" version="1.1" width="1000" height="1000" viewBox="0 0 1000 1000" xml:space="preserve">
<desc>Created with Fabric.js 3.5.0</desc>
<defs>
</defs>
<rect x="0" y="0" width="100%" height="100%" fill="rgba(102,51,102,0)"></rect>
<g transform="matrix(3.0933 0 0 3.0933 500.0239 500.0157)" id="598150">
<g style="" vector-effect="non-scaling-stroke">
		<g transform="matrix(1 0 0 1 -13.0409 -13.1603)" id="Layer_1">
<path style="stroke: none; stroke-width: 1; stroke-dasharray: none; stroke-linecap: butt; stroke-dashoffset: 0; stroke-linejoin: miter; stroke-miterlimit: 4; is-custom-font: none; font-file-url: none; fill: rgb(0,0,0); fill-rule: nonzero; opacity: 1;" transform=" translate(-498.9591, -322.8398)" d="M 536.810608 292.176453 C 556.932373 310.617157 576.793274 328.81958 596.757385 347.116638 C 598.584351 344.985229 597.883057 342.908844 597.886353 341.03418 C 597.92572 318.542145 597.95697 296.04953 597.800537 273.55838 C 597.775208 269.908844 598.880493 267.24231 601.502441 264.776489 C 606.661316 259.924774 611.600769 254.839676 617.725586 248.765625 C 617.725586 297.468384 617.725586 344.520813 617.725586 393.287567 C 576.60199 355.65451 536.540161 318.993134 495.79303 281.70462 C 457.618378 320.113556 419.764191 358.200073 381.286591 396.913879 C 379.478851 391.900848 380.662201 387.916321 380.301086 384.074738 C 379.915771 379.975464 380.717773 375.788544 380.258392 371.617584 C 379.944336 368.766235 382.061737 367.114258 383.824127 365.352142 C 412.097931 337.082153 440.375793 308.816284 468.648865 280.545563 C 476.306091 272.888947 484.04422 265.309631 491.548553 257.505737 C 494.073059 254.880432 495.720367 254.753021 498.475128 257.308136 C 511.052795 268.974243 523.838684 280.415894 536.810608 292.176453 z" stroke-linecap="round"></path>
</g>
		<g transform="matrix(1 0 0 1 20.8751 13.013)" id="Layer_1">
<path style="stroke: none; stroke-width: 1; stroke-dasharray: none; stroke-linecap: butt; stroke-dashoffset: 0; stroke-linejoin: miter; stroke-miterlimit: 4; is-custom-font: none; font-file-url: none; fill: rgb(0,0,0); fill-rule: nonzero; opacity: 1;" transform=" translate(-532.8751, -349.013)" d="M 581.448792 385.56543 C 583.193665 388.292358 581.303467 388.298401 579.788757 388.304321 C 571.966797 388.334869 564.14447 388.288361 556.322327 388.27771 C 554.694092 388.275482 553.534851 387.391571 552.400818 386.360382 C 529.99292 365.985748 507.58844 345.607361 485.136536 325.281311 C 483.21701 323.543549 483.030304 322.198975 484.966034 320.384583 C 488.121948 317.426453 491.229767 314.405579 494.187714 311.251617 C 496.30838 308.990387 497.909027 309.391541 500.036102 311.335388 C 527.058105 336.029144 554.142212 360.65506 581.448792 385.56543 z" stroke-linecap="round"></path>
</g>
</g>
</g>
</svg></svg><style>@media (prefers-color-scheme: light) { :root { filter: none; } }
@media (prefers-color-scheme: dark) { :root { filter: invert(100%); } }
</style></svg>